<svg xmlns="http://www.w3.org/2000/svg" width="19.858" height="23.83" viewBox="0 0 19.858 23.83"><defs><style>.a{fill:#ffff;}</style></defs><path class="a" d="M158.391,420.468a3.727,3.727,0,0,1-3.723-3.723.745.745,0,1,1,1.489,0,2.234,2.234,0,0,0,4.468,0,.745.745,0,1,1,1.489,0A3.727,3.727,0,0,1,158.391,420.468Zm0,0" transform="translate(-148.462 -396.638)"/><path class="a" d="M39.453,81.872H23.07a1.738,1.738,0,0,1-1.13-3.058,6.654,6.654,0,0,0,2.371-5.1V70.95a6.95,6.95,0,0,1,13.9,0v2.768a6.653,6.653,0,0,0,2.361,5.089,1.737,1.737,0,0,1-1.12,3.065ZM31.261,65.489A5.467,5.467,0,0,0,25.8,70.95v2.768a8.138,8.138,0,0,1-2.889,6.225.248.248,0,0,0-.089.191.251.251,0,0,0,.248.248H39.453a.251.251,0,0,0,.248-.248.245.245,0,0,0-.087-.189,8.14,8.14,0,0,1-2.891-6.227V70.95A5.467,5.467,0,0,0,31.261,65.489Zm0,0" transform="translate(-21.332 -61.021)"/><path class="a" d="M219.413,4.468a.745.745,0,0,1-.745-.745V.745a.745.745,0,0,1,1.489,0V3.723A.745.745,0,0,1,219.413,4.468Zm0,0" transform="translate(-209.483)"/></svg>